<svg width="66" height="59" viewBox="0 0 66 59" fill="none" xmlns="http://www.w3.org/2000/svg">
<g clip-path="url(#clip0_21_129)">
<path d="M39.7376 46.6035C39.4365 50.9809 37.7117 53.5897 34.6265 54.4549L16.3837 59H66V32.7748L45.5336 37.8798C41.9877 39.2898 40.0359 42.1942 39.7376 46.6035Z" fill="#00205C"/>
<path d="M62.1848 0L40.035 6.51592C36.6797 7.28172 34.6265 9.88791 33.7296 14.1952C33.0993 17.5042 32.2404 19.743 31.1776 20.9116C30.0168 22.1158 27.8938 23.0502 24.7088 23.6527L0 29.6664V0H62.1848Z" fill="#00205C"/>
<path d="M66 24.5516V18.0055L41.4262 24.4176C39.2017 25.0894 37.8061 27.3583 37.2103 31.3009C36.7777 34.1121 36.0186 36.2089 34.9602 37.5515C33.9627 38.7539 32.5017 39.6235 30.58 40.1905C28.0898 40.8915 20.7621 42.7967 8.55292 45.9389L0.0353394 48.1768V55.1568L34.231 46.1989C37.1467 45.4987 38.6827 43.5057 39.5681 39.1567C40.1675 36.334 40.8304 33.9737 42.1898 32.2708C43.1485 31.0995 44.1804 30.3674 45.2044 29.9956C46.1321 29.7028 49.7178 28.7613 56.018 27.227L66.0009 24.5516H66Z" fill="#B0B3B2"/>
<path d="M38.0392 22.2161C38.7401 20.9817 40.0633 19.9426 41.9877 19.0748C43.2818 18.6746 44.3446 18.372 45.17 18.207C46.0015 18.0064 52.9337 16.135 66 12.5607V5.87524L39.3015 12.7603C36.6797 13.763 34.9602 15.567 34.2301 18.0721L33.4983 21.3811C33.1682 22.8159 32.8027 23.9846 32.3728 24.8586C31.1096 27.495 28.7889 29.165 25.3727 29.8687L0.0335693 36.4467V43.2617L30.0177 35.5123C33.2415 34.8362 35.353 33.1058 36.0503 28.8323C36.5818 25.6582 37.2438 23.4531 38.0392 22.2161Z" fill="#B0B3B2"/>
</g>
<defs>
<clipPath id="clip0_21_129">
<rect width="66" height="59" fill="white"/>
</clipPath>
</defs>
</svg>
