<svg width="153" height="36" viewBox="0 0 153 36" fill="none" xmlns="http://www.w3.org/2000/svg">
<path d="M23.5669 27.6462C23.3884 30.243 22.3654 31.7906 20.5357 32.3038L9.71658 35.0001H39.1422V19.4427L27.0043 22.4711C24.9014 23.3076 23.7438 25.0305 23.5669 27.6462Z" fill="white"/>
<path d="M36.8796 0L23.7433 3.86538C21.7534 4.31966 20.5357 5.86571 20.0038 8.42087C19.63 10.3838 19.1206 11.7119 18.4903 12.4052C17.8019 13.1195 16.5428 13.6738 14.6539 14.0313L0 17.5987V0H36.8796Z" fill="white"/>
<path d="M39.1422 14.5645V10.6813L24.5684 14.4851C23.2491 14.8835 22.4214 16.2296 22.068 18.5684C21.8115 20.236 21.3613 21.4799 20.7336 22.2763C20.142 22.9896 19.2756 23.5055 18.1359 23.8419C16.659 24.2577 12.3132 25.3879 5.0724 27.2519L0.0209351 28.5795V32.7202L20.3012 27.4061C22.0303 26.9908 22.9413 25.8085 23.4664 23.2286C23.8218 21.5541 24.215 20.1539 25.0212 19.1437C25.5898 18.4489 26.2018 18.0146 26.8091 17.794C27.3593 17.6203 29.4858 17.0618 33.2222 16.1517L39.1427 14.5645H39.1422Z" fill="white"/>
<path d="M22.5596 13.1791C22.9753 12.4468 23.7601 11.8304 24.9014 11.3156C25.6688 11.0782 26.2992 10.8987 26.7887 10.8008C27.2818 10.6818 31.393 9.57162 39.1422 7.45127V3.48535L23.3083 7.56971C21.7534 8.16455 20.7336 9.23472 20.3006 10.7208L19.8666 12.6837C19.6708 13.5349 19.4541 14.2282 19.1991 14.7467C18.45 16.3106 17.0736 17.3013 15.0476 17.7188L0.0198975 21.621V25.6638L17.8024 21.0667C19.7143 20.6656 20.9666 19.6391 21.3801 17.1039C21.6953 15.221 22.0879 13.9129 22.5596 13.1791Z" fill="white"/>
<path d="M82.8176 0.753784C82.6307 0.80853 82.5271 0.934867 82.5271 1.11753L90.0286 6.25206C90.1124 5.92359 89.8407 5.55774 89.225 5.15767L82.8176 0.753784Z" fill="white"/>
<path d="M146.625 0.499557H143.841C143.379 0.499557 142.989 0.771181 142.645 1.35549L137.896 9.65528H140.94L144.167 4.21228V9.65528H146.235C147.003 9.6716 147.302 9.35049 147.687 8.72671L150.214 4.39494V9.65528H152.98V0.462182C151.341 0.443758 150.317 0.443758 149.906 0.462182C149.532 0.480606 149.208 0.734859 148.952 1.24389L146.625 5.1577V0.499557Z" fill="white"/>
<path d="M134.978 0.40686C134.224 0.40686 133.593 0.844828 133.097 1.75445L128.721 9.65471H131.609L132.703 7.63385H136.699L136.634 5.34083H133.848L135.111 3.01045L136.634 2.97255V5.34083L136.699 7.63385V9.65471H137.093L139.33 5.59403V0.40686H134.978H134.978Z" fill="white"/>
<path d="M129.815 2.9015C129.578 1.4081 128.793 0.572171 127.443 0.352661H121.273V9.65525H127.768L129.815 6.08571L127.169 6.0515C127.099 6.37892 126.895 6.61422 126.488 6.72372L123.803 6.74003V3.17471H126.246C126.828 3.19155 127.152 3.46633 127.169 4.01169V6.05202L129.815 6.08624V2.90203V2.9015Z" fill="white"/>
<path d="M112.748 0.2985C111.894 0.336401 111.451 0.826482 111.451 1.77243L114.135 3.08475H117.739V6.70745H114.135V3.08422L111.451 1.7719V8.05505C111.569 9.11048 112.014 9.65531 112.785 9.65531H119.498C120.096 9.61794 120.42 9.08995 120.487 8.10769V1.60819C120.471 0.789107 120.078 0.35272 119.362 0.297974H112.748L112.748 0.2985Z" fill="white"/>
<path d="M104.585 3.99384C104.6 3.5206 104.842 3.24635 105.282 3.15844H110.665V0.279541H104.566C102.96 0.480627 102.088 1.42552 101.952 3.11948V7.27175C101.969 8.65514 102.722 9.45422 104.174 9.65583H110.665V6.70797H105.626C104.991 6.70797 104.668 6.48899 104.619 6.06997L104.585 3.99437V3.99384Z" fill="white"/>
<path d="M101.2 1.59137C101.2 0.809131 100.756 0.35274 99.9028 0.243774L98.4526 3.08424V6.6322H94.846V3.08424H98.4526L99.9028 0.243774H93.12C92.5384 0.316418 92.1803 0.752806 92.0782 1.55557V8.16298C92.0782 9.05523 92.5064 9.5611 93.3247 9.6548H100.176C100.928 9.63638 101.269 9.12577 101.201 8.10665V1.59137H101.2Z" fill="white"/>
<path d="M83.8086 0.11585C83.5689 0.0968998 83.3814 0.207971 83.2118 0.425375L87.2429 3.1374H91.4285L91.4139 0.11585C86.5776 0.134274 84.0667 0.134274 83.8092 0.11585" fill="white"/>
<path d="M82.2711 1.42545C82.1533 1.64654 82.1533 1.8471 82.2883 2.02871L91.3929 8.32554C91.5301 8.16288 91.5301 7.96232 91.3929 7.74439L82.2705 1.42493L82.2711 1.42545Z" fill="white"/>
<path d="M82.2711 2.50146C82.2538 2.95628 82.4585 3.3574 82.9056 3.66639L90.7301 9.08992C90.849 9.16414 90.9851 9.05465 91.1374 8.70881L82.2711 2.50146Z" fill="white"/>
<path d="M89.9092 9.65529C90.3343 9.67161 90.5239 9.54527 90.4542 9.27364L86.4571 6.61426L82.2014 6.61584V9.65529H89.9087H89.9092Z" fill="white"/>
<path d="M82.9029 0.884399C82.715 0.938619 82.6119 1.06548 82.6119 1.24814L90.1066 6.37794C90.1904 6.04894 89.9187 5.68361 89.303 5.28355L82.9029 0.884399Z" fill="white"/>
<path d="M146.65 0.62959H143.871C143.408 0.62959 143.018 0.901214 142.675 1.48447L137.928 9.77742H140.968L144.194 4.33915V9.77742H146.262C147.027 9.79268 147.326 9.47211 147.711 8.84937L150.236 4.52023V9.77742H152.999V0.592216C151.36 0.573265 150.339 0.573265 149.928 0.592216C149.554 0.61064 149.23 0.864893 148.975 1.3734L146.65 5.28404V0.62959Z" fill="white"/>
<path d="M135.013 0.538452C134.26 0.538452 133.63 0.97484 133.134 1.88341L128.764 9.7763H131.648L132.74 7.75807H136.734L136.666 5.46716H133.885L135.146 3.13836L136.666 3.10098V5.46664L136.733 7.75754V9.77577H137.127L139.362 5.71931V0.538452H135.012H135.013Z" fill="white"/>
<path d="M129.856 3.02892C129.618 1.53762 128.833 0.702222 127.486 0.483765H121.323V9.77793H127.81L129.857 6.21103L127.211 6.17734C127.143 6.50476 126.939 6.73796 126.531 6.84955L123.849 6.86429V3.30265H126.291C126.873 3.32002 127.194 3.5927 127.211 4.13858V6.17734L129.857 6.21103V3.02945L129.856 3.02892Z" fill="white"/>
<path d="M112.804 0.429077C111.951 0.466452 111.508 0.956533 111.508 1.90248L114.189 3.21217H117.791V6.83172H114.189V3.21217L111.508 1.90248V8.1772C111.627 9.23211 112.071 9.77641 112.839 9.77641H119.547C120.145 9.73851 120.471 9.21264 120.535 8.23195V1.73771C120.522 0.919158 120.127 0.483297 119.412 0.429077H112.804H112.804Z" fill="white"/>
<path d="M104.648 4.12117C104.663 3.64741 104.905 3.37368 105.346 3.28525H110.723V0.410034H104.629C103.025 0.61112 102.154 1.55549 102.018 3.24735V7.39487C102.033 8.77668 102.786 9.57576 104.236 9.77632H110.723V6.8311H105.687C105.054 6.8311 104.732 6.61159 104.682 6.19467L104.648 4.12117H104.648Z" fill="white"/>
<path d="M101.268 1.72028C101.268 0.938571 100.825 0.483759 99.9703 0.374794L98.5212 3.21263V6.75638H94.9183V3.21211H98.5212L99.9703 0.374268H93.1944C92.6138 0.446911 92.2546 0.883299 92.1536 1.68501V8.28558C92.1536 9.1773 92.5818 9.68423 93.3991 9.77635H100.245C100.996 9.75898 101.337 9.24889 101.268 8.23188V1.72028H101.268Z" fill="white"/>
<path d="M83.8919 0.245336C83.6526 0.228491 83.4657 0.338509 83.2945 0.554861L87.323 3.26478H91.5039L91.4892 0.245336C86.6571 0.264286 84.1489 0.264286 83.8914 0.245336" fill="white"/>
<path d="M82.3553 1.55558C82.2376 1.77456 82.2375 1.97565 82.3737 2.15726L91.4699 8.4483C91.607 8.28511 91.607 8.08508 91.4699 7.86768L82.3553 1.55505V1.55558Z" fill="white"/>
<path d="M82.3553 2.63049C82.3381 3.0832 82.5433 3.48485 82.9888 3.79437L90.8055 9.21263C90.9249 9.2858 91.0615 9.17631 91.2139 8.83152L82.3553 2.63049Z" fill="white"/>
<path d="M89.9873 9.7764C90.4108 9.79429 90.5998 9.66743 90.5317 9.39633L86.5378 6.73853L82.2873 6.73958V9.7764H89.9873Z" fill="white"/>
<path d="M68.8223 0.251126C68.4129 0.251126 68.2192 0.594867 67.8815 1.21708L63.0295 9.60846H66.1921L69.372 4.27548V9.60846C70.5007 9.60741 71.2745 9.64005 71.7289 9.62741C72.1723 9.62741 72.2859 9.52266 72.5393 9.09943L75.3836 4.2939V9.60846H78.0148V0.251126C76.6835 0.21691 75.7595 0.21691 75.2637 0.251126C74.7862 0.271656 74.5271 0.636453 74.169 1.30709L71.6242 5.49305L71.5886 0.251126C70.1201 0.233228 69.1992 0.233228 68.8212 0.251126" fill="white"/>
<path d="M64.7582 5.31197V0.361151L61.9233 0.378522C61.5343 0.389577 61.3438 0.705945 60.8098 1.67137L58.4869 5.6594V0.324829H55.7703C55.2589 0.339042 55.0536 0.618035 54.7123 1.39974L52.0135 6.22317C52.9182 7.29703 52.8852 8.44407 51.9115 9.64584H53.1742L56.1818 4.3676V9.59057H58.6413C58.8104 9.59268 59.1366 9.2821 59.6172 8.51671L62.0934 4.18441V9.60847L64.7587 5.31144L64.7582 5.31197Z" fill="white"/>
<path d="M43.1131 1.67078C42.9938 1.83659 42.9582 2.03505 42.9938 2.27351L52.0989 8.51664C52.2523 8.444 52.3041 8.26239 52.2366 7.97077L43.1137 1.67078H43.1131Z" fill="white"/>
<path d="M43.1278 2.83679C42.8901 3.05472 43.1634 3.43794 43.9832 3.98382L51.4675 9.24417C51.7057 9.20785 51.8581 9.08098 51.9444 8.9178L43.1283 2.83679H43.1278Z" fill="white"/>
<path d="M47.2123 6.71326L43.3168 6.76958V9.77324H50.4759C50.8513 9.75587 51.1078 9.66532 51.2277 9.49898L47.2128 6.71378L47.2123 6.71326Z" fill="white"/>
<path d="M52.5591 3.29215V0.287964H44.5471C44.2743 0.304282 44.1026 0.378505 44.0183 0.506421L48.0322 3.29215H52.5591Z" fill="white"/>
<path d="M52.1319 7.44334C52.3209 7.13276 52.013 6.6769 51.2272 6.11364C50.4074 5.54987 47.8793 3.78168 43.6419 0.834351C43.4723 0.88857 43.3335 1.03386 43.2676 1.27179L52.1324 7.44334H52.1319Z" fill="white"/>
<path d="M68.8835 0.39272C68.4741 0.39272 68.2804 0.735935 67.9449 1.35762L63.0965 9.74111H66.2565L69.4332 4.41338V9.74111C70.5625 9.73953 71.3331 9.77269 71.787 9.75953C72.2315 9.75953 72.343 9.6553 72.5974 9.23208L75.4386 4.43181V9.74111H78.0661V0.39272C76.7358 0.356398 75.8134 0.356398 75.3197 0.39272C74.8423 0.412723 74.5836 0.778573 74.2261 1.44658L71.6823 5.62938L71.6467 0.39272C70.1808 0.374296 69.2605 0.374296 68.8835 0.39272Z" fill="white"/>
<path d="M64.8231 5.44773V0.50218L61.9908 0.520078C61.6019 0.531659 61.4113 0.848027 60.8778 1.81134L58.5576 5.79464V0.465332H55.8442C55.3327 0.480598 55.1275 0.758012 54.7866 1.54025L52.0884 6.35894C52.9941 7.43175 52.9596 8.57773 51.9868 9.77793H53.248L56.253 4.50442V9.72318H58.711C58.8816 9.72476 59.2062 9.41366 59.6852 8.64985L62.1605 4.32176V9.74002L64.8231 5.44668V5.44773Z" fill="white"/>
<path d="M43.1969 1.8103C43.0791 1.97612 43.043 2.17405 43.0791 2.41198L52.1743 8.65038C52.3287 8.57774 52.379 8.39666 52.3114 8.1045L43.1969 1.8103Z" fill="white"/>
<path d="M43.2137 2.97571C42.9754 3.19417 43.2482 3.57686 44.0665 4.12116L51.5455 9.37729C51.7821 9.34097 51.9366 9.21516 52.0203 9.05198L43.2137 2.97623V2.97571Z" fill="white"/>
<path d="M52.6355 3.43063V0.429077H44.6314C44.3565 0.445396 44.1858 0.518566 44.1015 0.648061L48.1138 3.43063H52.6355Z" fill="white"/>
<path d="M52.2093 7.57814C52.3973 7.26861 52.0889 6.81275 51.3047 6.24897C50.4849 5.68677 47.9599 3.92016 43.7262 0.975464C43.5566 1.03021 43.4189 1.17497 43.3519 1.41238L52.2099 7.57866L52.2093 7.57814Z" fill="white"/>
<path d="M49.3703 12.3025H43.4073V21.5877H49.9676L52.0549 17.8577L49.4399 17.7834C49.3886 18.4583 49.0724 18.6483 48.4997 18.6215H45.9873V15.1619H48.4321C48.9619 15.1441 49.3033 15.363 49.4399 15.8147V17.7834L52.0549 17.8577L52.0193 14.9614C51.9701 13.3416 51.0963 12.4689 49.3703 12.302" fill="white"/>
<path d="M61.5013 12.3778H56.9744C56.1876 12.4104 55.84 12.7389 55.5887 13.3248L50.8419 21.5893H53.8312L54.872 19.659H58.9732L58.9397 17.5297H56.1698L57.4179 15.1804H58.9225L58.9397 17.5297L58.9732 19.659L59.0062 21.5893H61.5019V12.3778H61.5013Z" fill="white"/>
<path d="M87.3665 12.3778H84.5149C84.0971 12.3963 83.6568 12.7558 82.9736 14.0334L78.8064 21.5894H81.8156L85.0415 15.9979V21.5894H87.0922C87.4969 21.5962 87.8963 21.3151 88.3046 20.5155C88.7329 19.6933 89.5527 18.2557 90.8181 16.1985V21.5888H93.5142V12.3773H90.4082C89.9982 12.3773 89.5355 12.85 89.0412 13.7586L87.366 16.7444V12.3773L87.3665 12.3778Z" fill="white"/>
<path d="M73.9031 12.2842H71.2033V18.8032C71.186 20.2055 71.9247 21.1314 73.4419 21.5889H77.9028L79.8833 17.9272V12.2842H77.1149V18.0183C77.0128 18.401 76.8249 18.6205 76.5354 18.6205L74.6224 18.6363C74.1235 18.5652 73.9031 18.3104 73.9031 17.893C73.9193 17.4387 73.9193 15.5789 73.9031 12.2847" fill="white"/>
<path d="M65.0519 21.5889C65.6707 21.5331 66.0246 21.1888 66.3183 20.5482L70.8462 12.2842H67.8203L65.087 17.1645V12.2842H62.4919V21.5889H65.0524H65.0519Z" fill="white"/>
<path d="M49.4504 12.422H43.4927V21.6994H50.0467L52.1313 17.9724L49.5179 17.8993C49.4687 18.5731 49.1514 18.7641 48.5792 18.7362H46.0695V15.2794H48.5101C49.0394 15.2609 49.3818 15.4804 49.5179 15.9321V17.8987L52.1313 17.9719L52.0957 15.0798C52.0455 13.4601 51.1738 12.5884 49.4504 12.4215" fill="white"/>
<path d="M61.5689 12.4973H57.0456C56.2614 12.5305 55.9127 12.8574 55.6625 13.4433L50.9194 21.7004H53.9071L54.9453 19.7727H59.0439L59.0109 17.6434H56.2426L57.4896 15.2967H58.9931L59.0104 17.6434L59.0434 19.7727L59.0764 21.7004H61.5689V12.4973Z" fill="white"/>
<path d="M87.4105 12.4974H84.5609C84.1447 12.5158 83.7045 12.8753 83.0223 14.1508L78.8587 21.7005H81.8643L85.0887 16.1148V21.7005H87.1377C87.5398 21.7073 87.9413 21.4251 88.3481 20.6271C88.7748 19.8065 89.5957 18.3699 90.8589 16.3154V21.7005H93.5535V12.4974H90.45C90.0391 12.4974 89.5779 12.9695 89.0821 13.8781L87.4105 16.8597V12.4968V12.4974Z" fill="white"/>
<path d="M73.9591 12.4042H71.2619V18.9179C71.2446 20.3186 71.9823 21.2441 73.4989 21.701H77.9557L79.9335 18.0435V12.4042H77.1688V18.1335C77.0662 18.5157 76.8782 18.7347 76.5887 18.7347L74.6795 18.75C74.1795 18.6789 73.9591 18.4246 73.9591 18.0083C73.9764 17.554 73.9764 15.6963 73.9591 12.4042Z" fill="white"/>
<path d="M65.1168 21.7005C65.7345 21.6447 66.0884 21.2994 66.3811 20.6603L70.9054 12.4037H67.882L65.1503 17.2803V12.4037H62.5578V21.7005H65.1163H65.1168Z" fill="white"/>
<path d="M45.5986 24.545V35H44.2336V24.545H45.5986ZM51.93 26.63C52.93 26.63 53.74 26.935 54.36 27.545C54.98 28.145 55.29 29.015 55.29 30.155V35H53.94V30.35C53.94 29.53 53.735 28.905 53.325 28.475C52.915 28.035 52.355 27.815 51.645 27.815C50.925 27.815 50.35 28.04 49.92 28.49C49.5 28.94 49.29 29.595 49.29 30.455V35H47.925V26.78H49.29V27.95C49.56 27.53 49.925 27.205 50.385 26.975C50.855 26.745 51.37 26.63 51.93 26.63ZM59.1847 27.905V32.75C59.1847 33.15 59.2697 33.435 59.4397 33.605C59.6097 33.765 59.9047 33.845 60.3247 33.845H61.3297V35H60.0997C59.3397 35 58.7697 34.825 58.3897 34.475C58.0097 34.125 57.8197 33.55 57.8197 32.75V27.905H56.7547V26.78H57.8197V24.71H59.1847V26.78H61.3297V27.905H59.1847ZM64.3486 28.115C64.5886 27.645 64.9286 27.28 65.3686 27.02C65.8186 26.76 66.3636 26.63 67.0036 26.63V28.04H66.6436C65.1136 28.04 64.3486 28.87 64.3486 30.53V35H62.9836V26.78H64.3486V28.115ZM68.0693 30.86C68.0693 30.02 68.2393 29.285 68.5793 28.655C68.9193 28.015 69.3843 27.52 69.9743 27.17C70.5743 26.82 71.2393 26.645 71.9693 26.645C72.6893 26.645 73.3143 26.8 73.8443 27.11C74.3743 27.42 74.7693 27.81 75.0293 28.28V26.78H76.4093V35H75.0293V33.47C74.7593 33.95 74.3543 34.35 73.8143 34.67C73.2843 34.98 72.6643 35.135 71.9543 35.135C71.2243 35.135 70.5643 34.955 69.9743 34.595C69.3843 34.235 68.9193 33.73 68.5793 33.08C68.2393 32.43 68.0693 31.69 68.0693 30.86ZM75.0293 30.875C75.0293 30.255 74.9043 29.715 74.6543 29.255C74.4043 28.795 74.0643 28.445 73.6343 28.205C73.2143 27.955 72.7493 27.83 72.2393 27.83C71.7293 27.83 71.2643 27.95 70.8443 28.19C70.4243 28.43 70.0893 28.78 69.8393 29.24C69.5893 29.7 69.4643 30.24 69.4643 30.86C69.4643 31.49 69.5893 32.04 69.8393 32.51C70.0893 32.97 70.4243 33.325 70.8443 33.575C71.2643 33.815 71.7293 33.935 72.2393 33.935C72.7493 33.935 73.2143 33.815 73.6343 33.575C74.0643 33.325 74.4043 32.97 74.6543 32.51C74.9043 32.04 75.0293 31.495 75.0293 30.875ZM82.721 26.63C83.721 26.63 84.531 26.935 85.151 27.545C85.771 28.145 86.081 29.015 86.081 30.155V35H84.731V30.35C84.731 29.53 84.526 28.905 84.116 28.475C83.706 28.035 83.146 27.815 82.436 27.815C81.716 27.815 81.141 28.04 80.711 28.49C80.291 28.94 80.081 29.595 80.081 30.455V35H78.716V26.78H80.081V27.95C80.351 27.53 80.716 27.205 81.176 26.975C81.646 26.745 82.161 26.63 82.721 26.63ZM95.8108 30.575C95.8108 30.835 95.7958 31.11 95.7658 31.4H89.1958C89.2458 32.21 89.5208 32.845 90.0208 33.305C90.5308 33.755 91.1458 33.98 91.8658 33.98C92.4558 33.98 92.9458 33.845 93.3358 33.575C93.7358 33.295 94.0158 32.925 94.1758 32.465H95.6458C95.4258 33.255 94.9858 33.9 94.3258 34.4C93.6658 34.89 92.8458 35.135 91.8658 35.135C91.0858 35.135 90.3858 34.96 89.7658 34.61C89.1558 34.26 88.6758 33.765 88.3258 33.125C87.9758 32.475 87.8008 31.725 87.8008 30.875C87.8008 30.025 87.9708 29.28 88.3108 28.64C88.6508 28 89.1258 27.51 89.7358 27.17C90.3558 26.82 91.0658 26.645 91.8658 26.645C92.6458 26.645 93.3358 26.815 93.9358 27.155C94.5358 27.495 94.9958 27.965 95.3158 28.565C95.6458 29.155 95.8108 29.825 95.8108 30.575ZM94.4008 30.29C94.4008 29.77 94.2858 29.325 94.0558 28.955C93.8258 28.575 93.5108 28.29 93.1108 28.1C92.7208 27.9 92.2858 27.8 91.8058 27.8C91.1158 27.8 90.5258 28.02 90.0358 28.46C89.5558 28.9 89.2808 29.51 89.2108 30.29H94.4008ZM99.2775 27.905V32.75C99.2775 33.15 99.3625 33.435 99.5325 33.605C99.7025 33.765 99.9975 33.845 100.418 33.845H101.423V35H100.193C99.4325 35 98.8625 34.825 98.4825 34.475C98.1025 34.125 97.9125 33.55 97.9125 32.75V27.905H96.8475V26.78H97.9125V24.71H99.2775V26.78H101.423V27.905H99.2775Z" fill="#E5E5E5"/>
</svg>
