<svg width="40" height="35" viewBox="0 0 40 35" fill="none" xmlns="http://www.w3.org/2000/svg">
<path d="M23.5669 27.6462C23.3884 30.243 22.3654 31.7906 20.5357 32.3038L9.71658 35.0001H39.1422V19.4427L27.0043 22.4711C24.9014 23.3076 23.7438 25.0305 23.5669 27.6462Z" fill="white"/>
<path d="M36.8796 0L23.7433 3.86538C21.7534 4.31966 20.5357 5.86571 20.0038 8.42087C19.63 10.3838 19.1206 11.7119 18.4903 12.4052C17.8019 13.1195 16.5428 13.6738 14.6539 14.0313L0 17.5987V0H36.8796Z" fill="white"/>
<path d="M39.1422 14.5645V10.6813L24.5684 14.4851C23.2491 14.8835 22.4214 16.2296 22.068 18.5684C21.8115 20.236 21.3613 21.4799 20.7336 22.2763C20.142 22.9896 19.2756 23.5055 18.1359 23.8419C16.659 24.2577 12.3132 25.3879 5.0724 27.2519L0.0209351 28.5795V32.7202L20.3012 27.4061C22.0303 26.9908 22.9413 25.8085 23.4664 23.2286C23.8218 21.5541 24.215 20.1539 25.0212 19.1437C25.5898 18.4489 26.2018 18.0146 26.8091 17.794C27.3593 17.6203 29.4858 17.0618 33.2222 16.1517L39.1427 14.5645H39.1422Z" fill="white"/>
<path d="M22.5596 13.1791C22.9753 12.4468 23.7601 11.8304 24.9014 11.3156C25.6688 11.0782 26.2992 10.8987 26.7887 10.8008C27.2818 10.6818 31.393 9.57162 39.1422 7.45127V3.48535L23.3083 7.56971C21.7534 8.16455 20.7336 9.23472 20.3006 10.7208L19.8666 12.6837C19.6708 13.5349 19.4541 14.2282 19.1991 14.7467C18.45 16.3106 17.0736 17.3013 15.0476 17.7188L0.0198975 21.621V25.6638L17.8024 21.0667C19.7143 20.6656 20.9666 19.6391 21.3801 17.1039C21.6953 15.221 22.0879 13.9129 22.5596 13.1791Z" fill="white"/>
</svg>
