<svg width="21" height="23" viewBox="0 0 21 23" fill="none" xmlns="http://www.w3.org/2000/svg">
<path d="M10.5 22.8262C11.9438 22.8262 13.125 21.7727 13.125 20.485H7.875C7.875 21.7727 9.05625 22.8262 10.5 22.8262ZM18.375 15.8027V9.94987C18.375 6.35621 16.2356 3.34784 12.4688 2.55185V1.75586C12.4688 0.784284 11.5894 0 10.5 0C9.41063 0 8.53125 0.784284 8.53125 1.75586V2.55185C4.7775 3.34784 2.625 6.3445 2.625 9.94987V15.8027L0 18.1439V19.3145H21V18.1439L18.375 15.8027ZM15.75 16.9733H5.25V9.94987C5.25 7.04685 7.23187 4.68229 10.5 4.68229C13.7681 4.68229 15.75 7.04685 15.75 9.94987V16.9733Z" fill="white"/>
</svg>
